<?xml version="1.0" encoding="UTF-8" standalone="no"?>
<!DOCTYPE svg PUBLIC "-//W3C//DTD SVG 1.1//EN"
 "http://www.w3.org/Graphics/SVG/1.1/DTD/svg11.dtd">
<!-- Generated by graphviz version 2.43.0 (0)
 -->
<!-- Title: northwind_olap_star Pages: 1 -->
<svg width="1176pt" height="698pt"
 viewBox="0.00 0.00 1176.00 698.00" xmlns="http://www.w3.org/2000/svg" xmlns:xlink="http://www.w3.org/1999/xlink">
<g id="graph0" class="graph" transform="scale(1 1) rotate(0) translate(4 694)">
<title>northwind_olap_star</title>
<polygon fill="white" stroke="transparent" points="-4,4 -4,-694 1172,-694 1172,4 -4,4"/>
<!-- dw.fact_sales_line -->
<g id="node1" class="node">
<title>dw.fact_sales_line</title>
<text text-anchor="start" x="116.5" y="-233.3" font-family="Times,serif" font-weight="bold" font-size="14.00">fact_sales_line (Grano: 1 línea de pedido)</text>
<text text-anchor="start" x="15.5" y="-205.3" font-family="Times,serif" font-size="14.00">PK: (order_id, product_id)</text>
<text text-anchor="start" x="15.5" y="-178.3" font-family="Times,serif" font-size="14.00">FKs: customer_sk, product_sk, employee_sk, shipper_sk</text>
<text text-anchor="start" x="15.5" y="-151.3" font-family="Times,serif" font-size="14.00">Fechas (role&#45;playing): order_date_sk / required_date_sk / shipped_date_sk</text>
<text text-anchor="start" x="15.5" y="-124.3" font-family="Times,serif" font-size="14.00">Measures: quantity, unit_price, discount, gross_amount, net_amount</text>
<text text-anchor="start" x="15.5" y="-97.3" font-family="Times,serif" font-size="14.00">Freight: order_freight, freight_allocated</text>
<polygon fill="none" stroke="black" points="8,-86.5 8,-250.5 547,-250.5 547,-86.5 8,-86.5"/>
</g>
<!-- dw.dim_customer -->
<g id="node2" class="node">
<title>dw.dim_customer</title>
<text text-anchor="start" x="838.5" y="-668.3" font-family="Times,serif" font-weight="bold" font-size="14.00">dim_customer (SCD2)</text>
<text text-anchor="start" x="763" y="-640.3" font-family="Times,serif" font-size="14.00">PK: customer_sk (surrogate)</text>
<text text-anchor="start" x="763" y="-613.3" font-family="Times,serif" font-size="14.00">BK: customer_id</text>
<text text-anchor="start" x="763" y="-586.3" font-family="Times,serif" font-size="14.00">Attrs: company_name, city, country, ...</text>
<text text-anchor="start" x="763" y="-559.3" font-family="Times,serif" font-size="14.00">SCD2: effective_from, effective_to, is_current</text>
<polygon fill="none" stroke="black" points="755.5,-549 755.5,-686 1092.5,-686 1092.5,-549 755.5,-549"/>
</g>
<!-- dw.fact_sales_line&#45;&gt;dw.dim_customer -->
<g id="edge1" class="edge">
<title>dw.fact_sales_line&#45;&gt;dw.dim_customer</title>
<path fill="none" stroke="black" d="M278,-254.54C278,-384.92 278,-617.5 278,-617.5 278,-617.5 737.48,-617.5 737.48,-617.5"/>
<polygon fill="black" stroke="black" points="737.48,-621 747.48,-617.5 737.48,-614 737.48,-621"/>
<text text-anchor="middle" x="617.5" y="-620.5" font-family="Times,serif" font-size="10.00">customer_sk</text>
</g>
<!-- dw.dim_product -->
<g id="node3" class="node">
<title>dw.dim_product</title>
<text text-anchor="start" x="781.5" y="-505.3" font-family="Times,serif" font-weight="bold" font-size="14.00">dim_product (SCD2, denormalizada)</text>
<text text-anchor="start" x="724" y="-477.3" font-family="Times,serif" font-size="14.00">PK: product_sk (surrogate)</text>
<text text-anchor="start" x="724" y="-450.3" font-family="Times,serif" font-size="14.00">BK: product_id</text>
<text text-anchor="start" x="724" y="-423.3" font-family="Times,serif" font-size="14.00">Attrs: product_name, category_name, supplier_name, ...</text>
<text text-anchor="start" x="724" y="-396.3" font-family="Times,serif" font-size="14.00">SCD2: effective_from, effective_to, is_current</text>
<polygon fill="none" stroke="black" points="717,-386 717,-523 1131,-523 1131,-386 717,-386"/>
</g>
<!-- dw.fact_sales_line&#45;&gt;dw.dim_product -->
<g id="edge2" class="edge">
<title>dw.fact_sales_line&#45;&gt;dw.dim_product</title>
<path fill="none" stroke="black" d="M555.11,-251.5C647.82,-251.5 728,-251.5 728,-251.5 728,-251.5 728,-371.79 728,-371.79"/>
<polygon fill="black" stroke="black" points="724.5,-371.79 728,-381.79 731.5,-371.79 724.5,-371.79"/>
<text text-anchor="middle" x="617.5" y="-457.5" font-family="Times,serif" font-size="10.00">product_sk</text>
</g>
<!-- dw.dim_employee -->
<g id="node4" class="node">
<title>dw.dim_employee</title>
<text text-anchor="start" x="838" y="-342.3" font-family="Times,serif" font-weight="bold" font-size="14.00">dim_employee (SCD1)</text>
<text text-anchor="start" x="762" y="-314.3" font-family="Times,serif" font-size="14.00">PK: employee_sk (surrogate)</text>
<text text-anchor="start" x="762" y="-287.3" font-family="Times,serif" font-size="14.00">BK: employee_id</text>
<text text-anchor="start" x="762" y="-260.3" font-family="Times,serif" font-size="14.00">Attrs: first_name, last_name, title, country, ...</text>
<polygon fill="none" stroke="black" points="755,-249.5 755,-359.5 1093,-359.5 1093,-249.5 755,-249.5"/>
</g>
<!-- dw.fact_sales_line&#45;&gt;dw.dim_employee -->
<g id="edge3" class="edge">
<title>dw.fact_sales_line&#45;&gt;dw.dim_employee</title>
<path fill="none" stroke="black" d="M555.43,-248.5C555.43,-248.5 736.71,-248.5 736.71,-248.5"/>
<polygon fill="black" stroke="black" points="736.71,-252 746.71,-248.5 736.71,-245 736.71,-252"/>
<text text-anchor="middle" x="617.5" y="-307.5" font-family="Times,serif" font-size="10.00">employee_sk</text>
</g>
<!-- dw.dim_shipper -->
<g id="node5" class="node">
<title>dw.dim_shipper</title>
<text text-anchor="start" x="845" y="-206.3" font-family="Times,serif" font-weight="bold" font-size="14.00">dim_shipper (SCD1)</text>
<text text-anchor="start" x="820" y="-178.3" font-family="Times,serif" font-size="14.00">PK: shipper_sk (surrogate)</text>
<text text-anchor="start" x="820" y="-151.3" font-family="Times,serif" font-size="14.00">BK: shipper_id</text>
<text text-anchor="start" x="820" y="-124.3" font-family="Times,serif" font-size="14.00">Attrs: company_name, phone</text>
<polygon fill="none" stroke="black" points="813,-113.5 813,-223.5 1035,-223.5 1035,-113.5 813,-113.5"/>
</g>
<!-- dw.fact_sales_line&#45;&gt;dw.dim_shipper -->
<g id="edge4" class="edge">
<title>dw.fact_sales_line&#45;&gt;dw.dim_shipper</title>
<path fill="none" stroke="black" d="M555.43,-168.5C555.43,-168.5 794.6,-168.5 794.6,-168.5"/>
<polygon fill="black" stroke="black" points="794.6,-172 804.6,-168.5 794.6,-165 794.6,-172"/>
<text text-anchor="middle" x="617.5" y="-171.5" font-family="Times,serif" font-size="10.00">shipper_sk</text>
</g>
<!-- dw.dim_date -->
<g id="node6" class="node">
<title>dw.dim_date</title>
<text text-anchor="start" x="888" y="-69.3" font-family="Times,serif" font-weight="bold" font-size="14.00">dim_date</text>
<text text-anchor="start" x="695" y="-41.3" font-family="Times,serif" font-size="14.00">PK: date_sk (YYYYMMDD) + Unknown (0)</text>
<text text-anchor="start" x="695" y="-14.3" font-family="Times,serif" font-size="14.00">Attrs: date, year, month, day, week_of_year, quarter, is_weekend</text>
<polygon fill="none" stroke="black" points="688,-4 688,-87 1160,-87 1160,-4 688,-4"/>
</g>
<!-- dw.fact_sales_line&#45;&gt;dw.dim_date -->
<g id="edge5" class="edge">
<title>dw.fact_sales_line&#45;&gt;dw.dim_date</title>
<path fill="none" stroke="black" d="M555.43,-84.62C555.43,-84.62 669.9,-84.62 669.9,-84.62"/>
<polygon fill="black" stroke="black" points="669.9,-88.13 679.9,-84.62 669.9,-81.13 669.9,-88.13"/>
<text text-anchor="middle" x="617.5" y="-134.5" font-family="Times,serif" font-size="10.00">order_date_sk</text>
</g>
<!-- dw.fact_sales_line&#45;&gt;dw.dim_date -->
<g id="edge6" class="edge">
<title>dw.fact_sales_line&#45;&gt;dw.dim_date</title>
<path fill="none" stroke="black" d="M555.43,-86.75C555.43,-86.75 669.9,-86.75 669.9,-86.75"/>
<polygon fill="black" stroke="black" points="669.9,-90.25 679.9,-86.75 669.9,-83.25 669.9,-90.25"/>
<text text-anchor="middle" x="617.5" y="-95.5" font-family="Times,serif" font-size="10.00">required_date_sk</text>
</g>
<!-- dw.fact_sales_line&#45;&gt;dw.dim_date -->
<g id="edge7" class="edge">
<title>dw.fact_sales_line&#45;&gt;dw.dim_date</title>
<path fill="none" stroke="black" d="M555.43,-88.88C555.43,-88.88 669.9,-88.88 669.9,-88.88"/>
<polygon fill="black" stroke="black" points="669.9,-92.38 679.9,-88.88 669.9,-85.38 669.9,-92.38"/>
<text text-anchor="middle" x="617.5" y="-51.5" font-family="Times,serif" font-size="10.00">shipped_date_sk</text>
</g>
</g>
</svg>
