<?xml version="1.0" encoding="UTF-8" standalone="no"?>
<!DOCTYPE svg PUBLIC "-//W3C//DTD SVG 1.1//EN"
 "http://www.w3.org/Graphics/SVG/1.1/DTD/svg11.dtd">
<!-- Generated by graphviz version 2.43.0 (0)
 -->
<!-- Title: northwind_oltp_erd Pages: 1 -->
<svg width="1574pt" height="1597pt"
 viewBox="0.00 0.00 1574.00 1596.50" xmlns="http://www.w3.org/2000/svg" xmlns:xlink="http://www.w3.org/1999/xlink">
<g id="graph0" class="graph" transform="scale(1 1) rotate(0) translate(4 1592.5)">
<title>northwind_oltp_erd</title>
<polygon fill="white" stroke="transparent" points="-4,4 -4,-1592.5 1570,-1592.5 1570,4 -4,4"/>
<!-- Categories -->
<g id="node1" class="node">
<title>Categories</title>
<text text-anchor="start" x="971" y="-1241.8" font-family="Times,serif" font-weight="bold" font-size="14.00">Categories</text>
<text text-anchor="start" x="906" y="-1217.8" font-family="Times,serif" font-size="14.00">CategoryID</text>
<text text-anchor="start" x="1022" y="-1217.8" font-family="Times,serif" font-size="14.00">INTEGER</text>
<text text-anchor="start" x="1100" y="-1217.8" font-family="Times,serif" font-size="14.00">PK</text>
<text text-anchor="start" x="906" y="-1194.8" font-family="Times,serif" font-size="14.00">CategoryName</text>
<text text-anchor="start" x="1022" y="-1194.8" font-family="Times,serif" font-size="14.00">TEXT</text>
<text text-anchor="start" x="906" y="-1171.8" font-family="Times,serif" font-size="14.00">Description</text>
<text text-anchor="start" x="1022" y="-1171.8" font-family="Times,serif" font-size="14.00">TEXT</text>
<text text-anchor="start" x="906" y="-1148.8" font-family="Times,serif" font-size="14.00">Picture</text>
<text text-anchor="start" x="1022" y="-1148.8" font-family="Times,serif" font-size="14.00">BLOB</text>
<polygon fill="none" stroke="black" points="900.5,-1140.5 900.5,-1257.5 1125.5,-1257.5 1125.5,-1140.5 900.5,-1140.5"/>
</g>
<!-- CustomerCustomerDemo -->
<g id="node2" class="node">
<title>CustomerCustomerDemo</title>
<text text-anchor="start" x="419.5" y="-1003.8" font-family="Times,serif" font-weight="bold" font-size="14.00">CustomerCustomerDemo</text>
<text text-anchor="start" x="408.5" y="-979.8" font-family="Times,serif" font-size="14.00">CustomerID</text>
<text text-anchor="start" x="537.5" y="-979.8" font-family="Times,serif" font-size="14.00">TEXT</text>
<text text-anchor="start" x="584.5" y="-979.8" font-family="Times,serif" font-size="14.00">PK,FK</text>
<text text-anchor="start" x="408.5" y="-956.8" font-family="Times,serif" font-size="14.00">CustomerTypeID</text>
<text text-anchor="start" x="537.5" y="-956.8" font-family="Times,serif" font-size="14.00">TEXT</text>
<text text-anchor="start" x="584.5" y="-956.8" font-family="Times,serif" font-size="14.00">PK,FK</text>
<polygon fill="none" stroke="black" points="403.5,-948.5 403.5,-1019.5 635.5,-1019.5 635.5,-948.5 403.5,-948.5"/>
</g>
<!-- CustomerDemographics -->
<g id="node3" class="node">
<title>CustomerDemographics</title>
<text text-anchor="start" x="918" y="-1098.8" font-family="Times,serif" font-weight="bold" font-size="14.00">CustomerDemographics</text>
<text text-anchor="start" x="915" y="-1074.8" font-family="Times,serif" font-size="14.00">CustomerTypeID</text>
<text text-anchor="start" x="1044" y="-1074.8" font-family="Times,serif" font-size="14.00">TEXT</text>
<text text-anchor="start" x="1091" y="-1074.8" font-family="Times,serif" font-size="14.00">PK</text>
<text text-anchor="start" x="915" y="-1051.8" font-family="Times,serif" font-size="14.00">CustomerDesc</text>
<text text-anchor="start" x="1044" y="-1051.8" font-family="Times,serif" font-size="14.00">TEXT</text>
<polygon fill="none" stroke="black" points="909.5,-1043.5 909.5,-1114.5 1116.5,-1114.5 1116.5,-1043.5 909.5,-1043.5"/>
</g>
<!-- CustomerCustomerDemo&#45;&gt;CustomerDemographics -->
<g id="edge1" class="edge">
<title>CustomerCustomerDemo&#45;&gt;CustomerDemographics</title>
<path fill="none" stroke="black" d="M561,-1023.62C561,-1039.23 561,-1053.5 561,-1053.5 561,-1053.5 891.27,-1053.5 891.27,-1053.5"/>
<polygon fill="black" stroke="black" points="891.27,-1057 901.27,-1053.5 891.27,-1050 891.27,-1057"/>
<text text-anchor="middle" x="760.5" y="-1082" font-family="Times,serif" font-size="10.00">CustomerTypeID → CustomerTypeID</text>
</g>
<!-- Customers -->
<g id="node4" class="node">
<title>Customers</title>
<text text-anchor="start" x="970.5" y="-1001.8" font-family="Times,serif" font-weight="bold" font-size="14.00">Customers</text>
<text text-anchor="start" x="921" y="-977.8" font-family="Times,serif" font-size="14.00">CustomerID</text>
<text text-anchor="start" x="1038" y="-977.8" font-family="Times,serif" font-size="14.00">TEXT</text>
<text text-anchor="start" x="1085" y="-977.8" font-family="Times,serif" font-size="14.00">PK</text>
<text text-anchor="start" x="921" y="-954.8" font-family="Times,serif" font-size="14.00">CompanyName</text>
<text text-anchor="start" x="1038" y="-954.8" font-family="Times,serif" font-size="14.00">TEXT</text>
<text text-anchor="start" x="921" y="-931.8" font-family="Times,serif" font-size="14.00">ContactName</text>
<text text-anchor="start" x="1038" y="-931.8" font-family="Times,serif" font-size="14.00">TEXT</text>
<text text-anchor="start" x="921" y="-908.8" font-family="Times,serif" font-size="14.00">ContactTitle</text>
<text text-anchor="start" x="1038" y="-908.8" font-family="Times,serif" font-size="14.00">TEXT</text>
<text text-anchor="start" x="921" y="-885.8" font-family="Times,serif" font-size="14.00">Address</text>
<text text-anchor="start" x="1038" y="-885.8" font-family="Times,serif" font-size="14.00">TEXT</text>
<text text-anchor="start" x="921" y="-862.8" font-family="Times,serif" font-size="14.00">City</text>
<text text-anchor="start" x="1038" y="-862.8" font-family="Times,serif" font-size="14.00">TEXT</text>
<text text-anchor="start" x="921" y="-839.8" font-family="Times,serif" font-size="14.00">Region</text>
<text text-anchor="start" x="1038" y="-839.8" font-family="Times,serif" font-size="14.00">TEXT</text>
<text text-anchor="start" x="921" y="-816.8" font-family="Times,serif" font-size="14.00">PostalCode</text>
<text text-anchor="start" x="1038" y="-816.8" font-family="Times,serif" font-size="14.00">TEXT</text>
<text text-anchor="start" x="921" y="-793.8" font-family="Times,serif" font-size="14.00">Country</text>
<text text-anchor="start" x="1038" y="-793.8" font-family="Times,serif" font-size="14.00">TEXT</text>
<text text-anchor="start" x="921" y="-770.8" font-family="Times,serif" font-size="14.00">Phone</text>
<text text-anchor="start" x="1038" y="-770.8" font-family="Times,serif" font-size="14.00">TEXT</text>
<text text-anchor="start" x="921" y="-747.8" font-family="Times,serif" font-size="14.00">Fax</text>
<text text-anchor="start" x="1038" y="-747.8" font-family="Times,serif" font-size="14.00">TEXT</text>
<polygon fill="none" stroke="black" points="915.5,-739 915.5,-1017 1110.5,-1017 1110.5,-739 915.5,-739"/>
</g>
<!-- CustomerCustomerDemo&#45;&gt;Customers -->
<g id="edge2" class="edge">
<title>CustomerCustomerDemo&#45;&gt;Customers</title>
<path fill="none" stroke="black" d="M643.71,-982.75C643.71,-982.75 897.18,-982.75 897.18,-982.75"/>
<polygon fill="black" stroke="black" points="897.18,-986.25 907.18,-982.75 897.18,-979.25 897.18,-986.25"/>
<text text-anchor="middle" x="760.5" y="-961" font-family="Times,serif" font-size="10.00">CustomerID → CustomerID</text>
</g>
<!-- Employees -->
<g id="node5" class="node">
<title>Employees</title>
<text text-anchor="start" x="971" y="-547.8" font-family="Times,serif" font-weight="bold" font-size="14.00">Employees</text>
<text text-anchor="start" x="903" y="-523.8" font-family="Times,serif" font-size="14.00">EmployeeID</text>
<text text-anchor="start" x="1025" y="-523.8" font-family="Times,serif" font-size="14.00">INTEGER</text>
<text text-anchor="start" x="1103" y="-523.8" font-family="Times,serif" font-size="14.00">PK</text>
<text text-anchor="start" x="903" y="-500.8" font-family="Times,serif" font-size="14.00">LastName</text>
<text text-anchor="start" x="1025" y="-500.8" font-family="Times,serif" font-size="14.00">TEXT</text>
<text text-anchor="start" x="903" y="-477.8" font-family="Times,serif" font-size="14.00">FirstName</text>
<text text-anchor="start" x="1025" y="-477.8" font-family="Times,serif" font-size="14.00">TEXT</text>
<text text-anchor="start" x="903" y="-454.8" font-family="Times,serif" font-size="14.00">Title</text>
<text text-anchor="start" x="1025" y="-454.8" font-family="Times,serif" font-size="14.00">TEXT</text>
<text text-anchor="start" x="903" y="-431.8" font-family="Times,serif" font-size="14.00">TitleOfCourtesy</text>
<text text-anchor="start" x="1025" y="-431.8" font-family="Times,serif" font-size="14.00">TEXT</text>
<text text-anchor="start" x="903" y="-408.8" font-family="Times,serif" font-size="14.00">BirthDate</text>
<text text-anchor="start" x="1025" y="-408.8" font-family="Times,serif" font-size="14.00">DATE</text>
<text text-anchor="start" x="903" y="-385.8" font-family="Times,serif" font-size="14.00">HireDate</text>
<text text-anchor="start" x="1025" y="-385.8" font-family="Times,serif" font-size="14.00">DATE</text>
<text text-anchor="start" x="903" y="-362.8" font-family="Times,serif" font-size="14.00">Address</text>
<text text-anchor="start" x="1025" y="-362.8" font-family="Times,serif" font-size="14.00">TEXT</text>
<text text-anchor="start" x="903" y="-339.8" font-family="Times,serif" font-size="14.00">City</text>
<text text-anchor="start" x="1025" y="-339.8" font-family="Times,serif" font-size="14.00">TEXT</text>
<text text-anchor="start" x="903" y="-316.8" font-family="Times,serif" font-size="14.00">Region</text>
<text text-anchor="start" x="1025" y="-316.8" font-family="Times,serif" font-size="14.00">TEXT</text>
<text text-anchor="start" x="903" y="-293.8" font-family="Times,serif" font-size="14.00">PostalCode</text>
<text text-anchor="start" x="1025" y="-293.8" font-family="Times,serif" font-size="14.00">TEXT</text>
<text text-anchor="start" x="903" y="-270.8" font-family="Times,serif" font-size="14.00">Country</text>
<text text-anchor="start" x="1025" y="-270.8" font-family="Times,serif" font-size="14.00">TEXT</text>
<text text-anchor="start" x="903" y="-247.8" font-family="Times,serif" font-size="14.00">HomePhone</text>
<text text-anchor="start" x="1025" y="-247.8" font-family="Times,serif" font-size="14.00">TEXT</text>
<text text-anchor="start" x="903" y="-224.8" font-family="Times,serif" font-size="14.00">Extension</text>
<text text-anchor="start" x="1025" y="-224.8" font-family="Times,serif" font-size="14.00">TEXT</text>
<text text-anchor="start" x="903" y="-201.8" font-family="Times,serif" font-size="14.00">Photo</text>
<text text-anchor="start" x="1025" y="-201.8" font-family="Times,serif" font-size="14.00">BLOB</text>
<text text-anchor="start" x="903" y="-178.8" font-family="Times,serif" font-size="14.00">Notes</text>
<text text-anchor="start" x="1025" y="-178.8" font-family="Times,serif" font-size="14.00">TEXT</text>
<text text-anchor="start" x="903" y="-155.8" font-family="Times,serif" font-size="14.00">ReportsTo</text>
<text text-anchor="start" x="1025" y="-155.8" font-family="Times,serif" font-size="14.00">INTEGER</text>
<text text-anchor="start" x="1103" y="-155.8" font-family="Times,serif" font-size="14.00">FK</text>
<text text-anchor="start" x="903" y="-132.8" font-family="Times,serif" font-size="14.00">PhotoPath</text>
<text text-anchor="start" x="1025" y="-132.8" font-family="Times,serif" font-size="14.00">TEXT</text>
<polygon fill="none" stroke="black" points="897.5,-124.5 897.5,-563.5 1128.5,-563.5 1128.5,-124.5 897.5,-124.5"/>
</g>
<!-- Employees&#45;&gt;Employees -->
<g id="edge3" class="edge">
<title>Employees&#45;&gt;Employees</title>
<path fill="none" stroke="black" d="M889.22,-167.5C885.89,-167.5 884,-167.5 884,-167.5 884,-167.5 884,-111.25 884,-111.25 884,-111.25 1145,-111.25 1145,-111.25 1145,-111.25 1145,-344 1145,-344 1145,-344 1144.17,-344 1144.17,-344"/>
<polygon fill="black" stroke="black" points="1146.74,-340.5 1136.74,-344 1146.74,-347.5 1146.74,-340.5"/>
</g>
<!-- EmployeeTerritories -->
<g id="node6" class="node">
<title>EmployeeTerritories</title>
<text text-anchor="start" x="439.5" y="-273.8" font-family="Times,serif" font-weight="bold" font-size="14.00">EmployeeTerritories</text>
<text text-anchor="start" x="409.5" y="-249.8" font-family="Times,serif" font-size="14.00">EmployeeID</text>
<text text-anchor="start" x="505.5" y="-249.8" font-family="Times,serif" font-size="14.00">INTEGER</text>
<text text-anchor="start" x="583.5" y="-249.8" font-family="Times,serif" font-size="14.00">PK,FK</text>
<text text-anchor="start" x="409.5" y="-226.8" font-family="Times,serif" font-size="14.00">TerritoryID</text>
<text text-anchor="start" x="505.5" y="-226.8" font-family="Times,serif" font-size="14.00">TEXT</text>
<text text-anchor="start" x="583.5" y="-226.8" font-family="Times,serif" font-size="14.00">PK,FK</text>
<polygon fill="none" stroke="black" points="404.5,-218.5 404.5,-289.5 634.5,-289.5 634.5,-218.5 404.5,-218.5"/>
</g>
<!-- EmployeeTerritories&#45;&gt;Employees -->
<g id="edge5" class="edge">
<title>EmployeeTerritories&#45;&gt;Employees</title>
<path fill="none" stroke="black" d="M642.76,-267.17C642.76,-267.17 879.17,-267.17 879.17,-267.17"/>
<polygon fill="black" stroke="black" points="879.17,-270.67 889.17,-267.17 879.17,-263.67 879.17,-270.67"/>
<text text-anchor="middle" x="760.5" y="-274" font-family="Times,serif" font-size="10.00">EmployeeID → EmployeeID</text>
</g>
<!-- Territories -->
<g id="node13" class="node">
<title>Territories</title>
<text text-anchor="start" x="970.5" y="-82.8" font-family="Times,serif" font-weight="bold" font-size="14.00">Territories</text>
<text text-anchor="start" x="886" y="-58.8" font-family="Times,serif" font-size="14.00">TerritoryID</text>
<text text-anchor="start" x="1041" y="-58.8" font-family="Times,serif" font-size="14.00">TEXT</text>
<text text-anchor="start" x="1119" y="-58.8" font-family="Times,serif" font-size="14.00">PK</text>
<text text-anchor="start" x="886" y="-35.8" font-family="Times,serif" font-size="14.00">TerritoryDescription</text>
<text text-anchor="start" x="1041" y="-35.8" font-family="Times,serif" font-size="14.00">TEXT</text>
<text text-anchor="start" x="886" y="-12.8" font-family="Times,serif" font-size="14.00">RegionID</text>
<text text-anchor="start" x="1041" y="-12.8" font-family="Times,serif" font-size="14.00">INTEGER</text>
<text text-anchor="start" x="1119" y="-12.8" font-family="Times,serif" font-size="14.00">FK</text>
<polygon fill="none" stroke="black" points="881,-4 881,-98 1145,-98 1145,-4 881,-4"/>
</g>
<!-- EmployeeTerritories&#45;&gt;Territories -->
<g id="edge4" class="edge">
<title>EmployeeTerritories&#45;&gt;Territories</title>
<path fill="none" stroke="black" d="M642.72,-240.83C746.78,-240.83 879,-240.83 879,-240.83 879,-240.83 879,-112.37 879,-112.37"/>
<polygon fill="black" stroke="black" points="882.5,-112.37 879,-102.37 875.5,-112.37 882.5,-112.37"/>
<text text-anchor="middle" x="760.5" y="-184" font-family="Times,serif" font-size="10.00">TerritoryID → TerritoryID</text>
</g>
<!-- Order Details -->
<g id="node7" class="node">
<title>Order Details</title>
<text text-anchor="start" x="66" y="-1014.8" font-family="Times,serif" font-weight="bold" font-size="14.00">Order Details</text>
<text text-anchor="start" x="13.5" y="-990.8" font-family="Times,serif" font-size="14.00">OrderID</text>
<text text-anchor="start" x="94.5" y="-990.8" font-family="Times,serif" font-size="14.00">INTEGER</text>
<text text-anchor="start" x="178.5" y="-990.8" font-family="Times,serif" font-size="14.00">PK,FK</text>
<text text-anchor="start" x="13.5" y="-967.8" font-family="Times,serif" font-size="14.00">ProductID</text>
<text text-anchor="start" x="94.5" y="-967.8" font-family="Times,serif" font-size="14.00">INTEGER</text>
<text text-anchor="start" x="178.5" y="-967.8" font-family="Times,serif" font-size="14.00">PK,FK</text>
<text text-anchor="start" x="13.5" y="-944.8" font-family="Times,serif" font-size="14.00">UnitPrice</text>
<text text-anchor="start" x="94.5" y="-944.8" font-family="Times,serif" font-size="14.00">NUMERIC</text>
<text text-anchor="start" x="13.5" y="-921.8" font-family="Times,serif" font-size="14.00">Quantity</text>
<text text-anchor="start" x="94.5" y="-921.8" font-family="Times,serif" font-size="14.00">INTEGER</text>
<text text-anchor="start" x="13.5" y="-898.8" font-family="Times,serif" font-size="14.00">Discount</text>
<text text-anchor="start" x="94.5" y="-898.8" font-family="Times,serif" font-size="14.00">REAL</text>
<polygon fill="none" stroke="black" points="8,-890 8,-1030 229,-1030 229,-890 8,-890"/>
</g>
<!-- Orders -->
<g id="node8" class="node">
<title>Orders</title>
<text text-anchor="start" x="492" y="-851.8" font-family="Times,serif" font-weight="bold" font-size="14.00">Orders</text>
<text text-anchor="start" x="405.5" y="-827.8" font-family="Times,serif" font-size="14.00">OrderID</text>
<text text-anchor="start" x="525.5" y="-827.8" font-family="Times,serif" font-size="14.00">INTEGER</text>
<text text-anchor="start" x="612.5" y="-827.8" font-family="Times,serif" font-size="14.00">PK</text>
<text text-anchor="start" x="405.5" y="-804.8" font-family="Times,serif" font-size="14.00">CustomerID</text>
<text text-anchor="start" x="525.5" y="-804.8" font-family="Times,serif" font-size="14.00">TEXT</text>
<text text-anchor="start" x="612.5" y="-804.8" font-family="Times,serif" font-size="14.00">FK</text>
<text text-anchor="start" x="405.5" y="-781.8" font-family="Times,serif" font-size="14.00">EmployeeID</text>
<text text-anchor="start" x="525.5" y="-781.8" font-family="Times,serif" font-size="14.00">INTEGER</text>
<text text-anchor="start" x="612.5" y="-781.8" font-family="Times,serif" font-size="14.00">FK</text>
<text text-anchor="start" x="405.5" y="-758.8" font-family="Times,serif" font-size="14.00">OrderDate</text>
<text text-anchor="start" x="525.5" y="-758.8" font-family="Times,serif" font-size="14.00">DATETIME</text>
<text text-anchor="start" x="405.5" y="-735.8" font-family="Times,serif" font-size="14.00">RequiredDate</text>
<text text-anchor="start" x="525.5" y="-735.8" font-family="Times,serif" font-size="14.00">DATETIME</text>
<text text-anchor="start" x="405.5" y="-712.8" font-family="Times,serif" font-size="14.00">ShippedDate</text>
<text text-anchor="start" x="525.5" y="-712.8" font-family="Times,serif" font-size="14.00">DATETIME</text>
<text text-anchor="start" x="405.5" y="-689.8" font-family="Times,serif" font-size="14.00">ShipVia</text>
<text text-anchor="start" x="525.5" y="-689.8" font-family="Times,serif" font-size="14.00">INTEGER</text>
<text text-anchor="start" x="612.5" y="-689.8" font-family="Times,serif" font-size="14.00">FK</text>
<text text-anchor="start" x="405.5" y="-666.8" font-family="Times,serif" font-size="14.00">Freight</text>
<text text-anchor="start" x="525.5" y="-666.8" font-family="Times,serif" font-size="14.00">NUMERIC</text>
<text text-anchor="start" x="405.5" y="-643.8" font-family="Times,serif" font-size="14.00">ShipName</text>
<text text-anchor="start" x="525.5" y="-643.8" font-family="Times,serif" font-size="14.00">TEXT</text>
<text text-anchor="start" x="405.5" y="-620.8" font-family="Times,serif" font-size="14.00">ShipAddress</text>
<text text-anchor="start" x="525.5" y="-620.8" font-family="Times,serif" font-size="14.00">TEXT</text>
<text text-anchor="start" x="405.5" y="-597.8" font-family="Times,serif" font-size="14.00">ShipCity</text>
<text text-anchor="start" x="525.5" y="-597.8" font-family="Times,serif" font-size="14.00">TEXT</text>
<text text-anchor="start" x="405.5" y="-574.8" font-family="Times,serif" font-size="14.00">ShipRegion</text>
<text text-anchor="start" x="525.5" y="-574.8" font-family="Times,serif" font-size="14.00">TEXT</text>
<text text-anchor="start" x="405.5" y="-551.8" font-family="Times,serif" font-size="14.00">ShipPostalCode</text>
<text text-anchor="start" x="525.5" y="-551.8" font-family="Times,serif" font-size="14.00">TEXT</text>
<text text-anchor="start" x="405.5" y="-528.8" font-family="Times,serif" font-size="14.00">ShipCountry</text>
<text text-anchor="start" x="525.5" y="-528.8" font-family="Times,serif" font-size="14.00">TEXT</text>
<polygon fill="none" stroke="black" points="400.5,-520.5 400.5,-867.5 638.5,-867.5 638.5,-520.5 400.5,-520.5"/>
</g>
<!-- Order Details&#45;&gt;Orders -->
<g id="edge7" class="edge">
<title>Order Details&#45;&gt;Orders</title>
<path fill="none" stroke="black" d="M237.06,-915.25C355.48,-915.25 520,-915.25 520,-915.25 520,-915.25 520,-881.54 520,-881.54"/>
<polygon fill="black" stroke="black" points="523.5,-881.54 520,-871.54 516.5,-881.54 523.5,-881.54"/>
<text text-anchor="middle" x="314" y="-946" font-family="Times,serif" font-size="10.00">OrderID → OrderID</text>
</g>
<!-- Products -->
<g id="node9" class="node">
<title>Products</title>
<text text-anchor="start" x="484.5" y="-1310.8" font-family="Times,serif" font-weight="bold" font-size="14.00">Products</text>
<text text-anchor="start" x="404.5" y="-1286.8" font-family="Times,serif" font-size="14.00">ProductID</text>
<text text-anchor="start" x="530.5" y="-1286.8" font-family="Times,serif" font-size="14.00">INTEGER</text>
<text text-anchor="start" x="614.5" y="-1286.8" font-family="Times,serif" font-size="14.00">PK</text>
<text text-anchor="start" x="404.5" y="-1263.8" font-family="Times,serif" font-size="14.00">ProductName</text>
<text text-anchor="start" x="530.5" y="-1263.8" font-family="Times,serif" font-size="14.00">TEXT</text>
<text text-anchor="start" x="404.5" y="-1240.8" font-family="Times,serif" font-size="14.00">SupplierID</text>
<text text-anchor="start" x="530.5" y="-1240.8" font-family="Times,serif" font-size="14.00">INTEGER</text>
<text text-anchor="start" x="614.5" y="-1240.8" font-family="Times,serif" font-size="14.00">FK</text>
<text text-anchor="start" x="404.5" y="-1217.8" font-family="Times,serif" font-size="14.00">CategoryID</text>
<text text-anchor="start" x="530.5" y="-1217.8" font-family="Times,serif" font-size="14.00">INTEGER</text>
<text text-anchor="start" x="614.5" y="-1217.8" font-family="Times,serif" font-size="14.00">FK</text>
<text text-anchor="start" x="404.5" y="-1194.8" font-family="Times,serif" font-size="14.00">QuantityPerUnit</text>
<text text-anchor="start" x="530.5" y="-1194.8" font-family="Times,serif" font-size="14.00">TEXT</text>
<text text-anchor="start" x="404.5" y="-1171.8" font-family="Times,serif" font-size="14.00">UnitPrice</text>
<text text-anchor="start" x="530.5" y="-1171.8" font-family="Times,serif" font-size="14.00">NUMERIC</text>
<text text-anchor="start" x="404.5" y="-1148.8" font-family="Times,serif" font-size="14.00">UnitsInStock</text>
<text text-anchor="start" x="530.5" y="-1148.8" font-family="Times,serif" font-size="14.00">INTEGER</text>
<text text-anchor="start" x="404.5" y="-1125.8" font-family="Times,serif" font-size="14.00">UnitsOnOrder</text>
<text text-anchor="start" x="530.5" y="-1125.8" font-family="Times,serif" font-size="14.00">INTEGER</text>
<text text-anchor="start" x="404.5" y="-1102.8" font-family="Times,serif" font-size="14.00">ReorderLevel</text>
<text text-anchor="start" x="530.5" y="-1102.8" font-family="Times,serif" font-size="14.00">INTEGER</text>
<text text-anchor="start" x="404.5" y="-1079.8" font-family="Times,serif" font-size="14.00">Discontinued</text>
<text text-anchor="start" x="530.5" y="-1079.8" font-family="Times,serif" font-size="14.00">TEXT</text>
<polygon fill="none" stroke="black" points="399,-1071.5 399,-1326.5 640,-1326.5 640,-1071.5 399,-1071.5"/>
</g>
<!-- Order Details&#45;&gt;Products -->
<g id="edge6" class="edge">
<title>Order Details&#45;&gt;Products</title>
<path fill="none" stroke="black" d="M237.04,-1028.75C342.11,-1028.75 479,-1028.75 479,-1028.75 479,-1028.75 479,-1057.38 479,-1057.38"/>
<polygon fill="black" stroke="black" points="475.5,-1057.38 479,-1067.38 482.5,-1057.38 475.5,-1057.38"/>
<text text-anchor="middle" x="314" y="-1105" font-family="Times,serif" font-size="10.00">ProductID → ProductID</text>
</g>
<!-- Orders&#45;&gt;Customers -->
<g id="edge9" class="edge">
<title>Orders&#45;&gt;Customers</title>
<path fill="none" stroke="black" d="M646.59,-803.25C646.59,-803.25 897.17,-803.25 897.17,-803.25"/>
<polygon fill="black" stroke="black" points="897.17,-806.75 907.17,-803.25 897.17,-799.75 897.17,-806.75"/>
<text text-anchor="middle" x="760.5" y="-876" font-family="Times,serif" font-size="10.00">CustomerID → CustomerID</text>
</g>
<!-- Orders&#45;&gt;Employees -->
<g id="edge10" class="edge">
<title>Orders&#45;&gt;Employees</title>
<path fill="none" stroke="black" d="M646.59,-542C646.59,-542 879.33,-542 879.33,-542"/>
<polygon fill="black" stroke="black" points="879.33,-545.5 889.33,-542 879.33,-538.5 879.33,-545.5"/>
<text text-anchor="middle" x="760.5" y="-420" font-family="Times,serif" font-size="10.00">EmployeeID → EmployeeID</text>
</g>
<!-- Shippers -->
<g id="node11" class="node">
<title>Shippers</title>
<text text-anchor="start" x="978" y="-697.8" font-family="Times,serif" font-weight="bold" font-size="14.00">Shippers</text>
<text text-anchor="start" x="905" y="-673.8" font-family="Times,serif" font-size="14.00">ShipperID</text>
<text text-anchor="start" x="1022" y="-673.8" font-family="Times,serif" font-size="14.00">INTEGER</text>
<text text-anchor="start" x="1100" y="-673.8" font-family="Times,serif" font-size="14.00">PK</text>
<text text-anchor="start" x="905" y="-650.8" font-family="Times,serif" font-size="14.00">CompanyName</text>
<text text-anchor="start" x="1022" y="-650.8" font-family="Times,serif" font-size="14.00">TEXT</text>
<text text-anchor="start" x="905" y="-627.8" font-family="Times,serif" font-size="14.00">Phone</text>
<text text-anchor="start" x="1022" y="-627.8" font-family="Times,serif" font-size="14.00">TEXT</text>
<polygon fill="none" stroke="black" points="900,-619 900,-713 1126,-713 1126,-619 900,-619"/>
</g>
<!-- Orders&#45;&gt;Shippers -->
<g id="edge8" class="edge">
<title>Orders&#45;&gt;Shippers</title>
<path fill="none" stroke="black" d="M646.59,-666C646.59,-666 881.87,-666 881.87,-666"/>
<polygon fill="black" stroke="black" points="881.87,-669.5 891.87,-666 881.87,-662.5 881.87,-669.5"/>
<text text-anchor="middle" x="760.5" y="-669" font-family="Times,serif" font-size="10.00">ShipVia → ShipperID</text>
</g>
<!-- Products&#45;&gt;Categories -->
<g id="edge12" class="edge">
<title>Products&#45;&gt;Categories</title>
<path fill="none" stroke="black" d="M648.19,-1199C648.19,-1199 882.21,-1199 882.21,-1199"/>
<polygon fill="black" stroke="black" points="882.21,-1202.5 892.21,-1199 882.21,-1195.5 882.21,-1202.5"/>
<text text-anchor="middle" x="760.5" y="-1202" font-family="Times,serif" font-size="10.00">CategoryID → CategoryID</text>
</g>
<!-- Suppliers -->
<g id="node12" class="node">
<title>Suppliers</title>
<text text-anchor="start" x="975" y="-1568.8" font-family="Times,serif" font-weight="bold" font-size="14.00">Suppliers</text>
<text text-anchor="start" x="905" y="-1544.8" font-family="Times,serif" font-size="14.00">SupplierID</text>
<text text-anchor="start" x="1022" y="-1544.8" font-family="Times,serif" font-size="14.00">INTEGER</text>
<text text-anchor="start" x="1100" y="-1544.8" font-family="Times,serif" font-size="14.00">PK</text>
<text text-anchor="start" x="905" y="-1521.8" font-family="Times,serif" font-size="14.00">CompanyName</text>
<text text-anchor="start" x="1022" y="-1521.8" font-family="Times,serif" font-size="14.00">TEXT</text>
<text text-anchor="start" x="905" y="-1498.8" font-family="Times,serif" font-size="14.00">ContactName</text>
<text text-anchor="start" x="1022" y="-1498.8" font-family="Times,serif" font-size="14.00">TEXT</text>
<text text-anchor="start" x="905" y="-1475.8" font-family="Times,serif" font-size="14.00">ContactTitle</text>
<text text-anchor="start" x="1022" y="-1475.8" font-family="Times,serif" font-size="14.00">TEXT</text>
<text text-anchor="start" x="905" y="-1452.8" font-family="Times,serif" font-size="14.00">Address</text>
<text text-anchor="start" x="1022" y="-1452.8" font-family="Times,serif" font-size="14.00">TEXT</text>
<text text-anchor="start" x="905" y="-1429.8" font-family="Times,serif" font-size="14.00">City</text>
<text text-anchor="start" x="1022" y="-1429.8" font-family="Times,serif" font-size="14.00">TEXT</text>
<text text-anchor="start" x="905" y="-1406.8" font-family="Times,serif" font-size="14.00">Region</text>
<text text-anchor="start" x="1022" y="-1406.8" font-family="Times,serif" font-size="14.00">TEXT</text>
<text text-anchor="start" x="905" y="-1383.8" font-family="Times,serif" font-size="14.00">PostalCode</text>
<text text-anchor="start" x="1022" y="-1383.8" font-family="Times,serif" font-size="14.00">TEXT</text>
<text text-anchor="start" x="905" y="-1360.8" font-family="Times,serif" font-size="14.00">Country</text>
<text text-anchor="start" x="1022" y="-1360.8" font-family="Times,serif" font-size="14.00">TEXT</text>
<text text-anchor="start" x="905" y="-1337.8" font-family="Times,serif" font-size="14.00">Phone</text>
<text text-anchor="start" x="1022" y="-1337.8" font-family="Times,serif" font-size="14.00">TEXT</text>
<text text-anchor="start" x="905" y="-1314.8" font-family="Times,serif" font-size="14.00">Fax</text>
<text text-anchor="start" x="1022" y="-1314.8" font-family="Times,serif" font-size="14.00">TEXT</text>
<text text-anchor="start" x="905" y="-1291.8" font-family="Times,serif" font-size="14.00">HomePage</text>
<text text-anchor="start" x="1022" y="-1291.8" font-family="Times,serif" font-size="14.00">TEXT</text>
<polygon fill="none" stroke="black" points="900,-1283.5 900,-1584.5 1126,-1584.5 1126,-1283.5 900,-1283.5"/>
</g>
<!-- Products&#45;&gt;Suppliers -->
<g id="edge11" class="edge">
<title>Products&#45;&gt;Suppliers</title>
<path fill="none" stroke="black" d="M648.19,-1305C648.19,-1305 881.79,-1305 881.79,-1305"/>
<polygon fill="black" stroke="black" points="881.79,-1308.5 891.79,-1305 881.79,-1301.5 881.79,-1308.5"/>
<text text-anchor="middle" x="760.5" y="-1437" font-family="Times,serif" font-size="10.00">SupplierID → SupplierID</text>
</g>
<!-- Regions -->
<g id="node10" class="node">
<title>Regions</title>
<text text-anchor="start" x="1401" y="-70.8" font-family="Times,serif" font-weight="bold" font-size="14.00">Regions</text>
<text text-anchor="start" x="1313" y="-46.8" font-family="Times,serif" font-size="14.00">RegionID</text>
<text text-anchor="start" x="1454" y="-46.8" font-family="Times,serif" font-size="14.00">INTEGER</text>
<text text-anchor="start" x="1532" y="-46.8" font-family="Times,serif" font-size="14.00">PK</text>
<text text-anchor="start" x="1313" y="-23.8" font-family="Times,serif" font-size="14.00">RegionDescription</text>
<text text-anchor="start" x="1454" y="-23.8" font-family="Times,serif" font-size="14.00">TEXT</text>
<polygon fill="none" stroke="black" points="1308,-15.5 1308,-86.5 1558,-86.5 1558,-15.5 1308,-15.5"/>
</g>
<!-- Territories&#45;&gt;Regions -->
<g id="edge13" class="edge">
<title>Territories&#45;&gt;Regions</title>
<path fill="none" stroke="black" d="M1153.15,-51C1153.15,-51 1289.98,-51 1289.98,-51"/>
<polygon fill="black" stroke="black" points="1289.98,-54.5 1299.98,-51 1289.98,-47.5 1289.98,-54.5"/>
<text text-anchor="middle" x="1226.5" y="-54" font-family="Times,serif" font-size="10.00">RegionID → RegionID</text>
</g>
</g>
</svg>
